<svg width="23" height="20" viewBox="0 0 23 20" fill="none" xmlns="http://www.w3.org/2000/svg">
<path d="M1.34375 3.70312H21.6562C22.0877 3.70312 22.4375 3.33938 22.4375 2.89062V0.859375C22.4375 0.410621 22.0877 0.046875 21.6562 0.046875H1.34375C0.912256 0.046875 0.5625 0.410621 0.5625 0.859375V2.89062C0.5625 3.33938 0.912256 3.70312 1.34375 3.70312ZM1.34375 11.8281H21.6562C22.0877 11.8281 22.4375 11.4644 22.4375 11.0156V8.98438C22.4375 8.53562 22.0877 8.17188 21.6562 8.17188H1.34375C0.912256 8.17188 0.5625 8.53562 0.5625 8.98438V11.0156C0.5625 11.4644 0.912256 11.8281 1.34375 11.8281ZM1.34375 19.9531H21.6562C22.0877 19.9531 22.4375 19.5894 22.4375 19.1406V17.1094C22.4375 16.6606 22.0877 16.2969 21.6562 16.2969H1.34375C0.912256 16.2969 0.5625 16.6606 0.5625 17.1094V19.1406C0.5625 19.5894 0.912256 19.9531 1.34375 19.9531Z" fill="black"/>
</svg>
