<svg width="21" height="20" viewBox="0 0 21 20" fill="none" xmlns="http://www.w3.org/2000/svg">
<path d="M19.8455 17.2913L15.9537 13.3971C15.7781 13.2214 15.54 13.1237 15.2901 13.1237H14.6539C15.7312 11.7449 16.3714 10.0107 16.3714 8.12421C16.3714 3.63636 12.7372 0 8.25211 0C3.76698 0 0.132812 3.63636 0.132812 8.12421C0.132812 12.612 3.76698 16.2484 8.25211 16.2484C10.1375 16.2484 11.8707 15.6079 13.2486 14.5298V15.1665C13.2486 15.4165 13.3462 15.6547 13.5219 15.8305L17.4137 19.7246C17.7806 20.0918 18.3739 20.0918 18.7369 19.7246L19.8416 18.6193C20.2086 18.2521 20.2086 17.6584 19.8455 17.2913ZM8.25211 13.1237C5.49233 13.1237 3.25562 10.8896 3.25562 8.12421C3.25562 5.36276 5.48843 3.12469 8.25211 3.12469C11.0119 3.12469 13.2486 5.35885 13.2486 8.12421C13.2486 10.8857 11.0158 13.1237 8.25211 13.1237Z" fill="#222222"/>
</svg>
