<svg width="39" height="37" viewBox="0 0 39 37" fill="none" xmlns="http://www.w3.org/2000/svg">
<path fill-rule="evenodd" clip-rule="evenodd" d="M19.1411 1C27.4143 1 34.1211 6.51348 34.1211 13.3147C36.2682 13.5336 38.2822 14.6762 38.2822 17.358V23.7891C38.2822 26.4572 36.2599 27.6066 34.1211 27.8255C33.8465 34.1403 29.2859 35.0365 24.0096 35.2349V35.6317C24.0096 36.3874 23.2645 37 22.3452 37H17.0938C16.1745 37 15.4294 36.3874 15.4294 35.6317V33.4082C15.4294 32.6525 16.1745 32.0399 17.0938 32.0399H22.3285C23.2478 32.0399 23.993 32.6525 23.993 33.4082V33.8666C29.4773 33.6682 32.2236 32.5667 32.4567 27.8666H30.8754C30.4158 27.8666 30.0432 27.5603 30.0432 27.1824V13.9578C30.0432 13.58 30.4158 13.2737 30.8754 13.2737H32.4567C32.4567 7.22816 26.495 2.32725 19.1411 2.32725C11.7872 2.32725 5.82555 7.22816 5.82555 13.2737H7.40678C7.86637 13.2737 8.239 13.58 8.239 13.9578V27.203C8.239 27.5808 7.86637 27.8871 7.40678 27.8871H4.99333C2.56324 27.8871 0 26.7925 0 23.7822V17.3512C0 14.683 2.0223 13.5336 4.16111 13.3147C4.16111 6.51348 10.8679 1 19.1411 1ZM6.57455 26.4983V14.5941H4.95172C3.69507 14.5941 1.62283 14.9704 1.62283 17.3307V23.7617C1.62283 26.1425 3.72003 26.4983 4.95172 26.4983H6.57455ZM22.3452 34.5986V35.6385H17.0938V33.4151H22.3452V34.5986ZM33.2889 26.5188C34.5455 26.5188 36.6178 26.1425 36.6178 23.7822L36.6594 17.3786C36.6594 14.9977 34.5622 14.642 33.3305 14.642H31.7077V26.5188H33.2889Z" fill="#222222"/>
<path d="M34.1211 13.3147H33.6211V13.7663L34.0704 13.8121L34.1211 13.3147ZM34.1211 27.8255L34.0702 27.3281L33.6403 27.3721L33.6216 27.8038L34.1211 27.8255ZM24.0096 35.2349L23.9908 34.7352L23.5096 34.7533V35.2349H24.0096ZM23.993 33.8666H23.493V34.385L24.011 34.3663L23.993 33.8666ZM32.4567 27.8666L32.956 27.8913L32.9821 27.3666H32.4567V27.8666ZM32.4567 13.2737V13.7737H32.9567V13.2737H32.4567ZM5.82555 13.2737H5.32555V13.7737H5.82555V13.2737ZM4.16111 13.3147L4.21202 13.8121L4.66111 13.7661V13.3147H4.16111ZM6.57455 14.5941H7.07455V14.0941H6.57455V14.5941ZM6.57455 26.4983V26.9983H7.07455V26.4983H6.57455ZM22.3452 35.6385V36.1385H22.8452V35.6385H22.3452ZM17.0938 35.6385H16.5938V36.1385H17.0938V35.6385ZM17.0938 33.4151V32.9151H16.5938V33.4151H17.0938ZM22.3452 33.4151H22.8452V32.9151H22.3452V33.4151ZM36.6178 23.7822L36.1178 23.779V23.7822H36.6178ZM36.6594 17.3786L37.1594 17.3818V17.3786H36.6594ZM31.7077 14.642V14.142H31.2077V14.642H31.7077ZM31.7077 26.5188H31.2077V27.0188H31.7077V26.5188ZM34.6211 13.3147C34.6211 6.15018 27.5944 0.5 19.1411 0.5V1.5C27.2343 1.5 33.6211 6.87679 33.6211 13.3147H34.6211ZM38.7822 17.358C38.7822 15.8756 38.218 14.777 37.3284 14.0299C36.4557 13.297 35.3085 12.9332 34.1718 12.8173L34.0704 13.8121C35.0808 13.9152 36.0142 14.2321 36.6853 14.7957C37.3394 15.345 37.7822 16.1586 37.7822 17.358H38.7822ZM38.7822 23.7891V17.358H37.7822V23.7891H38.7822ZM34.172 28.3229C35.3053 28.2069 36.4519 27.8411 37.325 27.1089C38.2149 26.3626 38.7822 25.2661 38.7822 23.7891H37.7822C37.7822 24.9802 37.3384 25.7925 36.6824 26.3427C36.0097 26.9069 35.0757 27.2252 34.0702 27.3281L34.172 28.3229ZM24.0284 35.7345C26.665 35.6354 29.2367 35.3631 31.1873 34.259C33.1951 33.1224 34.4771 31.1477 34.6206 27.8473L33.6216 27.8038C33.4905 30.8181 32.3549 32.4489 30.6947 33.3887C28.9772 34.3609 26.6304 34.636 23.9908 34.7352L24.0284 35.7345ZM24.5096 35.6317V35.2349H23.5096V35.6317H24.5096ZM22.3452 37.5C23.4445 37.5 24.5096 36.7507 24.5096 35.6317H23.5096C23.5096 36.0241 23.0844 36.5 22.3452 36.5V37.5ZM17.0938 37.5H22.3452V36.5H17.0938V37.5ZM14.9294 35.6317C14.9294 36.7507 15.9945 37.5 17.0938 37.5V36.5C16.3546 36.5 15.9294 36.0241 15.9294 35.6317H14.9294ZM14.9294 33.4082V35.6317H15.9294V33.4082H14.9294ZM17.0938 31.5399C15.9945 31.5399 14.9294 32.2892 14.9294 33.4082H15.9294C15.9294 33.0158 16.3546 32.5399 17.0938 32.5399V31.5399ZM22.3285 31.5399H17.0938V32.5399H22.3285V31.5399ZM24.493 33.4082C24.493 32.2892 23.4279 31.5399 22.3285 31.5399V32.5399C23.0678 32.5399 23.493 33.0158 23.493 33.4082H24.493ZM24.493 33.8666V33.4082H23.493V33.8666H24.493ZM31.9573 27.8418C31.8459 30.0875 31.1478 31.3586 29.9265 32.1324C28.6493 32.9415 26.7147 33.2678 23.9749 33.3669L24.011 34.3663C26.7556 34.267 28.9363 33.9434 30.4616 32.9771C32.0428 31.9755 32.8344 30.3458 32.956 27.8913L31.9573 27.8418ZM30.8754 28.3666H32.4567V27.3666H30.8754V28.3666ZM29.5432 27.1824C29.5432 27.9236 30.2358 28.3666 30.8754 28.3666V27.3666C30.7547 27.3666 30.6606 27.3261 30.6045 27.28C30.5495 27.2347 30.5432 27.1977 30.5432 27.1824H29.5432ZM29.5432 13.9578V27.1824H30.5432V13.9578H29.5432ZM30.8754 12.7737C30.2358 12.7737 29.5432 13.2167 29.5432 13.9578H30.5432C30.5432 13.9425 30.5495 13.9055 30.6045 13.8603C30.6606 13.8142 30.7547 13.7737 30.8754 13.7737V12.7737ZM32.4567 12.7737H30.8754V13.7737H32.4567V12.7737ZM19.1411 2.82725C26.315 2.82725 31.9567 7.59147 31.9567 13.2737H32.9567C32.9567 6.86486 26.6751 1.82725 19.1411 1.82725V2.82725ZM6.32555 13.2737C6.32555 7.59147 11.9672 2.82725 19.1411 2.82725V1.82725C11.6071 1.82725 5.32555 6.86486 5.32555 13.2737H6.32555ZM7.40678 12.7737H5.82555V13.7737H7.40678V12.7737ZM8.739 13.9578C8.739 13.2167 8.04642 12.7737 7.40678 12.7737V13.7737C7.52748 13.7737 7.62164 13.8142 7.67772 13.8603C7.73275 13.9055 7.739 13.9425 7.739 13.9578H8.739ZM8.739 27.203V13.9578H7.739V27.203H8.739ZM7.40678 28.3871C8.04642 28.3871 8.739 27.9441 8.739 27.203H7.739C7.739 27.2183 7.73275 27.2552 7.67772 27.3005C7.62164 27.3466 7.52748 27.3871 7.40678 27.3871V28.3871ZM4.99333 28.3871H7.40678V27.3871H4.99333V28.3871ZM-0.5 23.7822C-0.5 25.4539 0.223417 26.6333 1.30196 27.3754C2.35618 28.1008 3.7145 28.3871 4.99333 28.3871V27.3871C3.84207 27.3871 2.70373 27.1261 1.86881 26.5516C1.05821 25.9938 0.5 25.1208 0.5 23.7822H-0.5ZM-0.5 17.3512V23.7822H0.5V17.3512H-0.5ZM4.1102 12.8173C2.97692 12.9333 1.8303 13.2991 0.957203 14.0314C0.0673313 14.7777 -0.5 15.8741 -0.5 17.3512H0.5C0.5 16.1601 0.943818 15.3477 1.5998 14.7976C2.27255 14.2334 3.20649 13.915 4.21202 13.8121L4.1102 12.8173ZM19.1411 0.5C10.6878 0.5 3.66111 6.15018 3.66111 13.3147H4.66111C4.66111 6.87679 11.0479 1.5 19.1411 1.5V0.5ZM6.07455 14.5941V26.4983H7.07455V14.5941H6.07455ZM4.95172 15.0941H6.57455V14.0941H4.95172V15.0941ZM2.12283 17.3307C2.12283 16.332 2.5431 15.8116 3.0657 15.5105C3.62886 15.1859 4.35704 15.0941 4.95172 15.0941V14.0941C4.28975 14.0941 3.35348 14.1904 2.56636 14.644C1.73868 15.1211 1.12283 15.9691 1.12283 17.3307H2.12283ZM2.12283 23.7617V17.3307H1.12283V23.7617H2.12283ZM4.95172 25.9983C4.36766 25.9983 3.63921 25.9111 3.07296 25.5884C2.54815 25.2893 2.12283 24.7695 2.12283 23.7617H1.12283C1.12283 25.1347 1.74611 25.9832 2.57782 26.4572C3.3681 26.9076 4.30409 26.9983 4.95172 26.9983V25.9983ZM6.57455 25.9983H4.95172V26.9983H6.57455V25.9983ZM22.8452 35.6385V34.5986H21.8452V35.6385H22.8452ZM17.0938 36.1385H22.3452V35.1385H17.0938V36.1385ZM16.5938 33.4151V35.6385H17.5938V33.4151H16.5938ZM22.3452 32.9151H17.0938V33.9151H22.3452V32.9151ZM22.8452 34.5986V33.4151H21.8452V34.5986H22.8452ZM36.1178 23.7822C36.1178 24.7809 35.6975 25.3012 35.1749 25.6024C34.6117 25.927 33.8836 26.0188 33.2889 26.0188V27.0188C33.9508 27.0188 34.8871 26.9225 35.6742 26.4688C36.5019 25.9918 37.1178 25.1438 37.1178 23.7822H36.1178ZM36.1594 17.3753L36.1178 23.779L37.1178 23.7855L37.1594 17.3818L36.1594 17.3753ZM33.3305 15.142C33.9145 15.142 34.643 15.2291 35.2092 15.5519C35.7341 15.8509 36.1594 16.3708 36.1594 17.3786H37.1594C37.1594 16.0055 36.5361 15.157 35.7044 14.683C34.9141 14.2327 33.9781 14.142 33.3305 14.142V15.142ZM31.7077 15.142H33.3305V14.142H31.7077V15.142ZM32.2077 26.5188V14.642H31.2077V26.5188H32.2077ZM33.2889 26.0188H31.7077V27.0188H33.2889V26.0188Z" fill="#222222"/>
</svg>
