<svg width="21" height="20" viewBox="0 0 21 20" fill="none" xmlns="http://www.w3.org/2000/svg">
<path d="M15.6992 14.3064C13.0789 13.3511 12.2412 12.5447 12.2412 10.8181C12.2412 9.78192 13.0998 9.11038 13.3925 8.22235C13.6851 7.3343 13.8544 6.2829 13.9952 5.51808C14.1359 4.75327 14.1918 4.45745 14.2684 3.64255C14.3619 2.62553 13.6816 0 10.044 0C6.40748 0 5.72501 2.62553 5.82069 3.64255C5.89723 4.45745 5.95345 4.7533 6.09387 5.51808C6.23432 6.28288 6.40197 7.33423 6.69446 8.22235C6.98693 9.11045 7.84673 9.78192 7.84673 10.8181C7.84673 12.5447 7.00908 13.3511 4.38878 14.3064C1.75895 15.2638 0.0517578 16.208 0.0517578 16.875V20H20.0363V16.875C20.0363 16.2091 18.328 15.2649 15.6992 14.3064Z" fill="#222222"/>
</svg>
